<?xml version="1.0" encoding="utf-8"?>
<!-- Svg Vector Icons : http://www.onlinewebfonts.com/icon -->
<!DOCTYPE svg PUBLIC "-//W3C//DTD SVG 1.1//EN" "http://www.w3.org/Graphics/SVG/1.1/DTD/svg11.dtd">
<svg version="1.1" xmlns="http://www.w3.org/2000/svg" xmlns:xlink="http://www.w3.org/1999/xlink" x="0px" y="0px" viewBox="0 0 1000 1000" enable-background="new 0 0 1000 1000" xml:space="preserve">
<metadata> Svg Vector Icons : http://www.onlinewebfonts.com/icon </metadata>
<g><g transform="translate(0.000000,511.000000) scale(0.100000,-0.100000)"><path d="M300.4,2404.9c0-1172.5,0-1202.6-38.1-1202.6c-22,0-66.1-24.1-100.2-52.1c-52.1-42.1-62.1-66.1-62.1-138.3s10-96.2,62.1-138.3c34.1-28.1,78.2-52.1,98.2-52.1c36.1,0,38.1-36.1,44.1-715.5c8-715.5,8-717.5,62.1-877.9c138.3-414.9,422.9-691.5,799.7-781.7c94.2-22,256.5-30.1,631.3-30.1h507.1l28.1-68.2c34.1-80.2,84.2-112.2,172.4-112.2c88.2,0,138.3,32.1,172.4,112.2l28.1,68.2h541.2h539.1l-68.1,142.3c-178.4,372.8-168.4,845.8,22,1176.5l50.1,84.2h-539.1h-539.2l-32.1,80.2c-22,56.1-52.1,88.2-102.2,114.2c-68.1,32.1-76.2,32.1-144.3,0c-52.1-26-80.2-58.1-104.2-116.2l-32.1-82.2l-230.5,8c-378.8,14-382.8,20-382.8,597.3v400.8h62.1c90.2,0,178.4,94.2,178.4,190.4s-88.2,190.4-178.4,190.4h-62.1v1202.6v1202.6H991.9H300.4V2404.9z"/><path d="M4569.5,182.2c-292.6-92.2-553.2-310.7-679.4-567.2c-246.5-499-86.2-1100.3,374.8-1405c505.1-336.7,1178.5-210.4,1515.2,282.6c240.5,350.7,264.6,763.6,68.1,1154.5c-122.2,240.5-412.9,471-687.5,543.1C5000.4,230.3,4709.8,228.3,4569.5,182.2z M5130.7-92.4l106.2-32.1l-188.4-188.4l-188.4-188.4l-174.4,174.4c-96.2,96.2-170.4,180.4-164.3,190.4c22.1,34.1,206.4,74.2,350.7,74.2C4956.3-60.4,5070.6-74.4,5130.7-92.4z M5693.9-759.9c22.1-144.3-18-400.8-76.2-481c-4-6-88.2,70.1-186.4,168.4L5251-892.1l184.4,186.4l186.4,186.4l26.1-66.1C5663.8-619.6,5683.9-699.7,5693.9-759.9z M4304.9-727.8l164.4-164.4l-170.4-170.4l-168.4-168.4l-22.1,58.1c-44.1,118.3-64.1,258.6-52.1,372.8c14,126.3,48.1,238.5,70.2,238.5C4132.6-561.4,4212.8-635.6,4304.9-727.8z M5190.8-1627.7c0-8-52.1-30.1-114.3-48.1c-134.3-40.1-356.8-30.1-477,20l-78.2,34.1l168.4,168.4l170.4,170.4l164.4-164.3C5116.7-1539.5,5190.8-1619.7,5190.8-1627.7z"/><path d="M7423.6-0.2c-50.1-20-128.3-114.2-128.3-152.3c0-24.1-116.3-28.1-661.4-28.1h-661.4l58.1-116.2c100.2-196.4,130.3-332.7,132.3-575.2c0-240.5-44.1-432.9-142.3-609.3c-26.1-48.1-48.1-90.2-48.1-94.2c0-4,296.6-8,659.4-8h659.4l14-60.1c18-82.2,98.2-140.3,190.4-140.3c60.1,0,88.2,12,128.3,62.1c28.1,34.1,52.1,78.2,52.1,100.2c0,34.1,16,38.1,206.4,38.1c420.9,0,424.9-4,424.9-569.2v-422.9l-78.2-12c-104.2-16-152.3-78.2-152.3-188.4c0-72.1,10-96.2,62.1-138.3c36.1-30.1,86.2-52.1,120.3-52.1h58.1V-3177v-210.4H9009h691.5v208.5c0,206.4,0,208.4,52.1,220.5c148.3,38.1,196.4,206.4,90.2,314.6c-32.1,32.1-76.2,58.1-98.2,58.1c-38.1,0-40.1,22-50.1,697.5c-8,535.1-16,723.6-40.1,815.7c-90.2,350.8-302.7,633.3-579.2,773.6c-210.4,106.2-296.6,118.3-867.9,118.3h-523.1l-26.1,72.1c-18,50.1-46.1,80.2-94.2,100.2C7487.7,23.8,7481.7,23.8,7423.6-0.2z"/></g></g>
</svg>